<?xml version="1.0" encoding="utf-8"?>
<!-- Generator: Adobe Illustrator 22.1.0, SVG Export Plug-In . SVG Version: 6.00 Build 0)  -->
<svg version="1.1" id="Layer_1" xmlns="http://www.w3.org/2000/svg" xmlns:xlink="http://www.w3.org/1999/xlink" x="0px" y="0px"
	 width="40px" height="30px" viewBox="0 0 40 30" style="enable-background:new 0 0 40 30;" xml:space="preserve">
<style type="text/css">
	.st0{fill-rule:evenodd;clip-rule:evenodd;fill:#CCCCCC;}
	.st1{fill-rule:evenodd;clip-rule:evenodd;fill:#222222;}
	.st2{fill:#222222;}
	.st3{fill:#D60000;}
</style>
<path class="st0" d="M1,6h38v6H1V6z"/>
<path class="st1" d="M27,16h8v2h-8V16z"/>
<path class="st0" d="M5,16h18v2H5V16z"/>
<path class="st2" d="M36,1c1.7,0,3,1.3,3,3v22c0,1.7-1.3,3-3,3H4c-1.7,0-3-1.3-3-3V4c0-1.7,1.3-3,3-3H36 M36,0H4C1.8,0,0,1.8,0,4v22
	c0,2.2,1.8,4,4,4h32c2.2,0,4-1.8,4-4V4C40,1.8,38.2,0,36,0L36,0z"/>
<path class="st3" d="M31,10c3.9,0,7,3.1,7,7c0,3.9-3.1,7-7,7c-3.9,0-7-3.1-7-7C24,13.1,27.1,10,31,10 M31,9c-4.4,0-8,3.6-8,8
	c0,4.4,3.6,8,8,8c4.4,0,8-3.6,8-8C39,12.6,35.4,9,31,9L31,9z"/>
</svg>
