<svg xmlns="http://www.w3.org/2000/svg" viewBox="0 0 63.09 36.15"><defs><style>.cls-1{fill:#1d1c1a;}</style></defs><title>ic_hat</title><g id="Layer_2" data-name="Layer 2"><g id="Hat"><path class="cls-1" d="M5.42,32.26a42,42,0,0,0,8.52,2.38,94.52,94.52,0,0,0,17.6,1.51,94.66,94.66,0,0,0,17.62-1.51,42.69,42.69,0,0,0,8.51-2.38c2.06-.85,6.53-3,5.16-6a3.18,3.18,0,0,0-4.24-1.58,27.45,27.45,0,0,1-3.37,1.28c-.82.26-1.27,0-1.37-.87q-.84-6.64-1.7-13.3C51.6,7.3,47.56,4.22,44,2.57A28.45,28.45,0,0,0,31.54,0,28.5,28.5,0,0,0,19.09,2.57c-3.56,1.65-7.6,4.73-8.16,9.18S9.8,20.62,9.24,25.05c-.11.85-.55,1.13-1.37.87a26.71,26.71,0,0,1-3.36-1.28A3.2,3.2,0,0,0,.25,26.22c-1.36,3,3.12,5.19,5.17,6"/></g></g></svg>