<svg xmlns="http://www.w3.org/2000/svg" viewBox="0 0 150 124.71"><defs><style>.cls-1{fill:#1d1c1a;}</style></defs><title>Asic_umRight</title><g id="Layer_2" data-name="Layer 2"><g id="um_right"><path class="cls-1" d="M144.36,2.4a13.21,13.21,0,0,0-20.31,7.29,2.23,2.23,0,1,0,4.3,1.19,8.75,8.75,0,1,1,13.52,9.47L125.79,31.83a.46.46,0,0,1-.75-.12c-.26-.38-.52-.76-.81-1.14a.43.43,0,0,0-.69-.14C106.73,40.58,74.63,63,74.63,63L63.44,71.12S22.82,101.34,16.27,111q-8,6-16,12a.44.44,0,0,0-.11.72c.09.13.18.26.28.38s.17.26.26.38c.21.31.42.34.73.13L18,113.33C29.84,110.09,74.63,79.1,74.63,79.1l11.2-8S115,49.69,129,38.05a.44.44,0,0,0,.09-.71l-.75-1.07a.45.45,0,0,1,.12-.73l16-11.56a13.21,13.21,0,0,0-.1-21.58"/></g></g></svg>